<?xml version="1.0" encoding="UTF-8" standalone="no"?>
<svg
   xmlns:dc="http://purl.org/dc/elements/1.1/"
   xmlns:cc="http://creativecommons.org/ns#"
   xmlns:rdf="http://www.w3.org/1999/02/22-rdf-syntax-ns#"
   xmlns:svg="http://www.w3.org/2000/svg"
   xmlns="http://www.w3.org/2000/svg"
   version="1.1"
   id="svg10"
   width="1280"
   height="1200"
   viewBox="0 0 1280 1200">
  <metadata
     id="metadata16">
    <rdf:RDF>
      <cc:Work
         rdf:about="">
        <dc:format>image/svg+xml</dc:format>
        <dc:type
           rdf:resource="http://purl.org/dc/dcmitype/StillImage" />
        <dc:title></dc:title>
      </cc:Work>
    </rdf:RDF>
  </metadata>
  <defs
     id="defs14" />
  <g
     id="g18"
     style="display:inline">
    <g
       id="g616"
       transform="translate(0.066506,0.1443785)">
      <path
         style="fill:#fa955e;stroke-width:1.27776"
         d="m 170.95685,1163.4855 -4.57864,0.01 -0.85183,-0.8518 -0.85184,-0.8519 v -0.9777 -0.9778 l 11.18037,-8.0481 11.18037,-8.0481 11.29379,-10.8579 11.29378,-10.8579 7.67045,-11.4674 7.67044,-11.4675 5.44974,-10.9212 5.44975,-10.9213 3.54566,-8.9443 3.54566,-8.9443 3.71628,-14.6942 3.71627,-14.6942 2.54682,-15.6386 2.54682,-15.63854 1.85954,-17.58309 1.85953,-17.58308 1.28626,-60.05456 1.28626,-60.05456 1.27241,-52.38803 1.27241,-52.38802 1.91124,-33.22167 1.91126,-33.22168 1.32718,-18.52747 1.32718,-18.52747 1.31697,-13.41645 1.31696,-13.41644 1.88929,-15.97196 1.88929,-15.97196 3.233,-21.08298 3.23301,-21.08299 4.38305,-21.53477 4.38305,-21.53476 5.17705,-20.63121 5.17705,-20.6312 4.54586,-15.33308 4.54586,-15.33308 6.80083,-19.17377 6.80085,-19.17377 7.08696,-16.24921 7.08697,-16.24922 4.66956,-9.29849 4.66955,-9.2985 5.80577,-10.22206 5.80576,-10.22205 9.32087,-14.24004 9.32086,-14.24003 11.35339,-13.87061 11.35338,-13.87061 15.30767,-16.6325 15.30765,-16.63248 14.58922,-13.62828 14.58922,-13.6283 13.97529,-11.56636 13.97527,-11.56634 14.13538,-10.13592 14.13536,-10.13591 12.13869,-7.59165 12.13868,-7.59164 14.05533,-7.63072 14.05532,-7.63071 13.41645,-6.13724 13.41644,-6.13725 15.97196,-6.04377 15.97196,-6.043776 15.97196,-4.628713 15.97195,-4.628713 14.69421,-3.140714 14.6942,-3.140713 17.88859,-2.635457 17.88859,-2.635459 25.75066,-1.494242 25.75067,-1.494242 25.3596,1.490383 25.35961,1.490384 15.95122,1.982834 15.95122,1.982833 12.41024,3.145832 12.41023,3.145831 17.32182,5.787486 17.32183,5.787485 16.92679,7.116901 16.9268,7.1169 18.5505,9.25813 18.55048,9.25813 10.83794,6.13845 10.8379,6.13844 12.7639,8.27085 12.7639,8.27084 7.6802,5.82542 7.6802,5.82542 5.111,4.42588 5.1111,4.42588 14.5079,15.44123 14.508,15.44123 9.2634,11.52122 9.2633,11.52124 7.5846,10.86093 7.5846,10.86094 6.6808,11.07726 6.6809,11.07727 3.3154,7.24182 3.3154,7.2418 -1.2044,1.20436 -1.2043,1.20436 -15.2316,-11.36622 -15.2315,-11.36621 -15.1571,-9.03376 -15.1571,-9.03377 -15.5091,-6.97321 -15.5091,-6.97321 -11.4998,-4.06791 -11.4998,-4.06792 -16.6108,-4.26395 -16.61085,-4.26395 -14.6942,-2.32947 -14.6942,-2.32945 -30.66616,0.008 -30.66616,0.008 -13.71317,2.28772 -13.71316,2.28771 -13.11973,3.14728 -13.11972,3.14728 -14.05533,4.59845 -14.05532,4.59842 -14.6942,6.28795 -14.6942,6.28794 -13.86353,7.65287 -13.86355,7.65288 -10.41383,6.8621 -10.41385,6.86209 -12.31162,9.38938 -12.31162,9.38938 -14.02828,12.4827 -14.02829,12.48271 -12.04771,13.07242 -12.0477,13.07243 -8.98949,10.86094 -8.98948,10.86093 -7.67224,10.22205 -7.67222,10.22205 -10.20347,15.33308 -10.20344,15.33308 -7.69704,12.77757 -7.69704,12.77757 -10.32623,19.16635 -10.32623,19.16635 -9.76321,20.92897 -9.76321,20.92898 -9.557,23.524 -9.55699,23.524 -5.16892,14.32383 -5.16893,14.32383 -7.00696,21.72186 -7.00696,21.72187 -6.28973,22.16793 -6.28975,22.16792 -6.91875,27.66459 -6.91875,27.66458 -3.98808,18.75154 -3.98807,18.75154 -4.40246,23.06668 -4.40246,23.06671 -7.0823,41.87482 -7.08229,41.87483 -4.5225,18.36492 -4.52251,18.36491 -6.18993,18.69003 -6.18996,18.69003 -6.66902,15.33312 -6.669,15.3331 -5.16646,9.5831 -5.16644,9.5832 -10.48761,15.972 -10.4876,15.9719 -9.67971,11.0533 -9.67971,11.0533 -9.97082,8.7519 -9.97081,8.752 -8.94045,6.5242 -8.94044,6.5243 -9.38242,5.4207 -9.38243,5.4206 -12.33944,5.4663 -12.33943,5.4663 -12.77757,4.0955 -12.77757,4.0956 -13.41644,3.0168 -13.41645,3.0169 -14.05532,1.9755 -14.05532,1.9756 -17.8886,1.2869 -17.88859,1.2868 -4.57862,0.01 z m 18.3145,-4.2178 16.93028,-0.7838 15.33308,-2.0162 15.33308,-2.0163 14.6942,-3.2792 14.6942,-3.2792 13.41645,-4.3546 13.41644,-4.3546 17.8886,-8.7988 17.88859,-8.7987 11.46277,-8.1168 11.46277,-8.1167 14.52826,-14.0205 14.52824,-14.0205 6.10625,-7.7014 6.10624,-7.7013 7.94195,-11.9217 7.94196,-11.9217 7.49099,-14.2723 7.491,-14.2724 5.03755,-12.13866 5.03755,-12.13868 4.05561,-11.49981 4.05563,-11.49981 4.2894,-15.33308 4.28942,-15.33308 3.24048,-14.69421 3.24049,-14.6942 6.46949,-38.97158 6.46949,-38.97157 7.68522,-38.23696 7.68522,-38.23696 7.05228,-28.20639 7.05227,-28.20639 7.03528,-24.91625 7.03529,-24.91626 9.33726,-28.11064 9.33726,-28.11065 6.45626,-16.61084 6.45627,-16.61083 7.24686,-17.24972 7.24688,-17.24971 12.42408,-25.55514 12.42409,-25.55513 11.22954,-19.80523 11.22955,-19.80523 14.48305,-21.72186 14.48306,-21.72186 10.72858,-13.73241 10.72858,-13.73242 11.18015,-12.74169 11.18017,-12.7417 14.47858,-13.91889 14.47859,-13.91889 12.62212,-10.15285 12.6221,-10.15285 12.08106,-8.4086 12.08105,-8.4086 15.61136,-8.9311 15.61138,-8.93111 13.77703,-6.03425 13.77704,-6.03427 9.87637,-3.60506 9.87635,-3.60508 11.20663,-3.21817 11.20662,-3.21818 12.13869,-2.64901 12.13868,-2.64902 14.44021,-1.89818 14.4402,-1.89819 h 23.50762 23.50762 l 15.07907,1.96412 15.07909,1.96413 14.69423,3.26309 14.6942,3.26311 13.7591,4.42748 13.7592,4.42748 12.3123,5.12424 12.3124,5.12425 9.7056,4.90492 9.7057,4.90492 13.4421,8.17833 13.4421,8.17833 10.8251,7.94558 10.8251,7.94557 0.406,-1.21806 0.406,-1.21804 -6.0074,-10.6318 -6.0074,-10.63177 -8.6822,-12.77757 -8.6822,-12.77757 -11.2106,-14.05532 -11.2107,-14.05532 -19.217,-19.2243 -19.2171,-19.22431 -11.8297,-8.24746 -11.8298,-8.24747 -14.3642,-8.68482 -14.36429,-8.68481 -22.36074,-11.30582 -22.36075,-11.30581 -15.6206,-6.51819 -15.6206,-6.51819 -16.96219,-5.816462 -16.9622,-5.816461 -14.05532,-3.703055 -14.05532,-3.703055 -16.61084,-1.970196 -16.61084,-1.970196 -24.24289,-1.313665 -24.24289,-1.313667 -23.67298,1.290032 -23.67299,1.290032 -10.86093,1.323277 -10.86093,1.323278 -14.6942,2.575109 -14.6942,2.57511 -17.24972,4.343514 -17.24971,4.343514 -16.75534,5.756102 -16.75533,5.756099 -11.35532,4.67903 -11.35531,4.67903 -16.59457,8.26212 -16.59457,8.26213 -10.8772,6.51416 -10.87719,6.51415 -10.86093,7.00192 -10.86094,7.00191 -12.77756,9.59015 -12.77757,9.59015 -12.13869,10.27917 -12.13869,10.27918 -13.67117,12.67182 -13.67118,12.67183 -15.28583,16.77494 -15.28583,16.77493 -10.55497,12.77757 -10.55498,12.77756 -10.51724,15.97196 -10.51725,15.97196 -7.15567,13.15219 -7.15566,13.15219 -7.14991,15.59734 -7.14992,15.59733 -3.8291,9.58317 -3.82911,9.58318 -4.36067,12.13869 -4.36068,12.13869 -5.0172,16.61083 -5.01719,16.61084 -5.74063,22.99962 -5.74063,22.99962 -3.29362,15.71085 -3.29363,15.71085 -3.14882,18.78858 -3.14881,18.78858 -2.5254,19.16635 -2.52538,19.16635 -2.60213,29.3884 -2.60211,29.38841 -1.91301,33.28447 -1.913,33.28449 -1.31563,36.99213 -1.31563,36.99214 -1.27033,76.6654 -1.27032,76.6654 -1.83378,19.80523 -1.83377,19.80523 -1.92407,13.4164 -1.92407,13.4165 -3.32826,15.7326 -3.32828,15.7326 -3.85398,11.1003 -3.85397,11.1003 -6.23636,12.9123 -6.23635,12.9123 -7.93848,11.8682 -7.93849,11.8681 -9.6982,9.7722 -9.6982,9.7722 -10.54149,7.9901 -10.54149,7.9902 v 0.7785 0.7786 z m 428.24197,-112.0528 h -0.59313 l -0.79131,-2.0622 -0.79132,-2.0621 1.4984,-13.8153 1.49842,-13.8154 2.44033,-9.5416 2.44033,-9.54161 4.09522,-8.12204 4.09521,-8.12202 4.81839,-7.10359 4.8184,-7.10357 10.25133,-9.64371 10.25134,-9.64373 6.79669,-4.49266 6.79671,-4.49266 10.86093,-5.84931 10.86093,-5.84933 16.61084,-6.27445 16.61083,-6.27445 20.90694,-6.65244 20.90695,-6.65245 21.25902,-8.06373 21.25903,-8.06373 20.94779,-9.1221 20.9478,-9.12208 17.3849,-9.70261 17.38491,-9.70262 16.61084,-10.87344 16.61084,-10.87344 19.16635,-14.38982 19.16635,-14.3898 14.05532,-12.71834 14.05532,-12.71836 8.75598,-9.31652 8.756,-9.31652 10.8432,-13.57293 10.8432,-13.57294 14.4691,-21.72187 14.469,-21.72186 7.0649,-12.77757 7.0649,-12.77756 6.9928,-20.62343 6.9928,-20.62342 5.7834,-22.82031 5.7833,-22.8203 3.1963,-16.61083 3.1963,-16.61084 2.6072,-19.16635 2.6072,-19.16635 1.2869,-15.33308 1.2869,-15.33308 0.01,-31.94392 0.01,-31.94391 -1.3288,-14.69421 -1.3287,-14.6942 -2.5309,-15.97196 -2.5309,-15.97195 -3.0746,-12.77757 -3.0747,-12.77757 -4.7081,-13.41644 -4.7081,-13.41645 -0.6369,-3.51383 -0.637,-3.51383 h 1.3677 1.3677 l 6.9149,8.62486 6.9148,8.62486 12.8295,18.52747 12.8295,18.52747 12.0505,19.80523 12.0505,19.80523 11.0056,20.4441 11.0057,20.44411 7.8667,17.24971 7.8668,17.24972 6.8256,16.70538 6.8255,16.70539 6.4161,18.82308 6.416,18.82308 4.5132,16.37119 4.5132,16.3712 3.8566,18.19367 3.8566,18.19368 2.4581,16.79412 2.458,16.79412 1.5088,19.80522 1.5088,19.80523 -0.6844,21.08299 -0.6843,21.08298 -3.255,18.73321 -3.255,18.7332 -3.8089,15.12735 -3.8088,15.12735 -5.2931,15.33308 -5.293,15.33308 -6.1829,12.77756 -6.1828,12.77757 -6.6319,10.85274 -6.6319,10.85274 -8.0258,10.23025 -8.0257,10.23024 -10.6842,10.33411 -10.6842,10.33413 -9.5831,7.01857 -9.5832,7.01857 -9.0759,5.27416 -9.0759,5.27414 -9.9311,4.52574 -9.931,4.52572 -13.9463,5.13182 -13.9463,5.1318 -17.5181,4.37609 -17.5182,4.37609 -17.2497,3.87182 -17.24972,3.8718 -32.43947,4.51563 -32.43946,4.51563 -14.83754,1.21993 -14.83753,1.21992 -7.66654,0.74417 -7.66654,0.74416 -74.10988,1.08938 -74.10989,1.08938 -14.6942,2.1077 -14.6942,2.10769 -9.58318,1.967 -9.58317,1.96697 -8.9443,3.71567 -8.9443,3.71565 -10.73338,6.25575 -10.73339,6.25574 -10.81442,10.6847 -10.81443,10.6846 -6.96814,14.3748 -6.96814,14.3748 h -0.59311 z m 7.44179,-20.9559 5.31965,-10.0949 10.68732,-10.6154 10.68732,-10.61541 11.22725,-6.42486 11.22726,-6.42486 7.42114,-3.28199 7.42116,-3.28198 10.34577,-2.42691 10.34578,-2.42691 15.33308,-2.16451 15.33308,-2.1645 70.91549,-0.94324 70.9155,-0.94323 24.27737,-2.02569 24.27738,-2.02568 19.16635,-2.60926 19.16635,-2.60924 16.61084,-2.44272 16.6108,-2.44273 22.9997,-5.2495 22.9996,-5.24951 13.2512,-3.82648 13.2513,-3.8265 12.3039,-4.58007 12.3038,-4.58005 14.8155,-7.52213 14.8154,-7.52213 11.3786,-8.14588 11.3786,-8.14586 9.0695,-8.40446 9.0696,-8.40446 7.0826,-8.68498 7.0826,-8.68498 7.2931,-10.86093 7.2931,-10.86093 8.7646,-17.8886 8.7646,-17.88859 4.4696,-13.41645 4.4696,-13.41644 3.8213,-15.33308 3.8213,-15.33308 2.5615,-15.33308 2.5614,-15.33308 1.4714,-13.41645 1.4713,-13.41644 -0.8404,-20.44411 -0.8405,-20.4441 -1.8448,-17.24972 -1.8449,-17.24971 -3.3199,-18.52748 -3.3198,-18.52747 -5.5302,-21.72186 -5.5302,-21.72186 -6.6035,-19.80523 -6.6035,-19.80523 -7.669,-19.16635 -7.669,-19.16635 -13.709,-28.11065 -13.709,-28.11064 -8.7086,-15.33308 -8.7085,-15.33308 -10.8648,-17.24972 -10.8648,-17.24971 -11.9311,-16.75251 -11.9312,-16.7525 -1.9423,-1.61198 -1.9423,-1.61199 v 0.5953 0.5953 l 2.616,7.54714 2.616,7.54713 3.7081,14.6942 3.7081,14.6942 1.9771,10.86093 1.977,10.86094 1.917,16.56989 1.9171,16.56991 0.8172,24.95719 0.8172,24.95719 -1.5209,24.27738 -1.521,24.27737 -2.4443,19.16635 -2.4444,19.16635 -3.9182,20.90165 -3.9182,20.90164 -5.0848,19.75718 -5.0848,19.75718 -6.9797,21.14215 -6.9797,21.14215 -7.1762,13.58667 -7.1761,13.58667 -14.4006,21.72186 -14.4006,21.72187 -12.8221,15.97195 -12.8221,15.97196 -15.78479,15.57643 -15.78481,15.57644 -9.23183,7.67177 -9.23184,7.67178 -12.49002,9.43856 -12.49004,9.43855 -19.80522,13.22918 -19.80523,13.22918 -19.06535,10.60302 -19.06533,10.60302 -23.10064,9.80118 -23.10062,9.80117 -19.80523,7.3327 -19.80523,7.33271 -17.24971,5.45677 -17.24972,5.45677 -18.52747,6.84752 -18.52747,6.84753 -12.77757,7.1237 -12.77757,7.12369 -7.02766,5.23269 -7.02766,5.23268 -8.0743,7.70819 -8.07431,7.7082 -5.59008,8.97638 -5.59008,8.97639 -3.37052,7.37104 -3.37052,7.37105 -2.4341,11.7953 -2.4341,11.7953 0.023,5.7499 0.023,5.7499 5.31964,-10.0949 z"
         id="path626" />
      <path
         style="fill:#708cc3;stroke-width:1.27776"
         d="m 659.00338,1163.4793 -9.74615,0.012 -1.57626,-1.8993 -1.57626,-1.8993 -1.1882,-15.031 -1.18821,-15.031 0.76055,-14.0553 0.76056,-14.0553 1.87682,-15.3331 1.87682,-15.3331 1.99996,-6.9731 1.99996,-6.973 2.97968,-5.8802 2.97967,-5.8801 5.28911,-6.6912 5.28911,-6.6912 7.90993,-5.8791 7.90991,-5.8791 11.49981,-5.4088 11.49981,-5.4089 10.22205,-2.6313 10.22206,-2.6314 13.41644,-1.9847 13.41645,-1.98474 14.05532,-1.38654 14.05532,-1.38655 33.22168,0.82609 33.22167,0.82608 26.83289,-1.33391 26.83289,-1.33391 19.80523,-1.2893 19.80523,-1.2893 37.02153,-5.16341 37.02154,-5.16342 27.939,-6.44504 27.939,-6.44504 15.5381,-5.01807 15.5382,-5.01806 12.7775,-5.54902 12.7776,-5.549 2.2361,0.58266 2.236,0.58265 v 2.62692 2.6269 l -18.208,18.46743 -18.208,18.46743 -15.972,14.06215 -15.9719,14.0621 -17.4588,13.1421 -17.4588,13.1421 -11.2907,7.5631 -11.2908,7.5631 -17.48438,10.3831 -17.4844,10.3831 -21.63217,10.8303 -21.63216,10.8302 -16.49441,6.9444 -16.49442,6.9445 -16.86592,5.8675 -16.8659,5.8675 -19.80414,5.8404 -19.80413,5.8404 -19.68355,4.4392 -19.68353,4.4392 -18.36662,3.1064 -18.36661,3.1065 -18.52747,2.0012 -18.52748,2.0011 -21.08298,1.2581 -21.08299,1.258 -9.74616,0.011 z m 18.46446,-2.9395 28.33665,-0.7744 18.52747,-1.9884 18.52747,-1.9883 19.80523,-3.2531 19.80523,-3.253 17.24971,-3.865 17.24972,-3.8651 15.97196,-4.4142 15.97195,-4.4142 19.80523,-6.4498 19.80523,-6.4497 15.97196,-6.4207 15.97196,-6.4207 23.03712,-11.1324 23.03712,-11.1325 17.21221,-9.9762 17.21224,-9.9761 14.6163,-9.6203 14.6163,-9.6203 17.3276,-13.0434 17.3276,-13.0434 15.972,-14.0612 15.9719,-14.06119 17.5692,-17.83285 17.5691,-17.83284 v -2.13372 -2.1337 h -0.5197 -0.5198 l -8.744,3.98428 -8.7439,3.98427 -15.972,5.70631 -15.972,5.70631 -29.3884,6.9887 -29.3884,6.98871 -20.6971,3.06388 -20.69717,3.06388 -19.55218,2.61044 -19.55218,2.61045 -19.16635,1.43227 -19.16635,1.43229 -69.63774,0.91727 -69.63774,0.91724 -15.97195,2.2558 -15.97196,2.2558 -12.13869,3.0396 -12.13869,3.0397 -13.05751,6.4483 -13.0575,6.4483 -7.92536,7.3163 -7.92535,7.3162 -4.81286,7.4232 -4.81286,7.4232 -2.60472,7.9099 -2.60471,7.9099 -2.17134,15.972 -2.17135,15.9719 -0.048,24.9163 -0.048,24.9162 1.00545,4.9811 1.00545,4.9811 28.33665,-0.7744 z m -93.44509,-1.0869 -5.99393,-0.2044 -4.47215,-0.4961 -4.47215,-0.4961 -19.80522,-3.2225 -19.80523,-3.2225 -18.52747,-3.881 -18.52748,-3.881 -25.20183,-7.5213 -25.20183,-7.5212 -17.60302,-6.5436 -17.60301,-6.5437 -3.43281,-1.7604 -3.43281,-1.7605 -0.77598,-1.2555 -0.77597,-1.2556 9.78626,-10.4645 9.78626,-10.4645 7.00827,-9.4765 7.00826,-9.4766 6.1512,-9.9178 6.1512,-9.9178 7.61559,-15.2133 7.61559,-15.2134 5.77455,-14.6942 5.77457,-14.69422 4.05778,-12.74889 4.05779,-12.74888 4.86886,-19.83392 4.86887,-19.8339 1.62514,-9.20128 1.62514,-9.20126 1.62212,-0.62247 1.62213,-0.62246 12.20284,4.36145 12.20283,4.36147 18.8838,5.11785 18.8838,5.11785 17.24972,3.09948 17.24971,3.09948 13.61954,1.56978 13.61951,1.56977 1.69324,1.04647 1.69323,1.04647 -5.42683,4.64516 -5.42681,4.64515 -5.58404,7.87214 -5.58404,7.87214 -4.4925,8.976 -4.4925,8.97599 -3.25705,10.82924 -3.25706,10.82919 -1.98057,10.6709 -1.98056,10.6708 -1.31907,17.5303 -1.31907,17.5303 1.34836,20.3536 1.34835,20.3536 2.55298,17.5694 2.55297,17.5694 2.52365,12.2651 2.52365,12.2652 -0.71142,1.1511 -0.7114,1.151 z m 1.91664,-1.2169 1.52179,0.1437 0.6658,-1.0773 0.66582,-1.0773 -2.56938,-12.6586 -2.56938,-12.6586 -2.59609,-17.2497 -2.5961,-17.2497 -0.70375,-28.5829 -0.70375,-28.583 1.58073,-13.583 1.58072,-13.5831 3.7198,-14.69416 3.7198,-14.6942 7.05511,-14.27231 7.05512,-14.27231 8.33506,-9.00263 8.33505,-9.00262 -2.95374,-0.6349 -2.95375,-0.63487 -12.13869,-1.43853 -12.13869,-1.43851 -16.61083,-3.04101 -16.61084,-3.04101 -18.7963,-5.16524 -18.7963,-5.16524 -10.35983,-3.81979 -10.35983,-3.81979 h -1.1 -1.1 l -1.46427,7.3471 -1.46425,7.3471 -3.22979,14.6942 -3.2298,14.6942 -4.43739,15.33308 -4.43739,15.33308 -6.43263,17.24972 -6.43262,17.24974 -6.76429,14.0553 -6.76429,14.0553 -8.30767,13.6528 -8.30768,13.6527 -7.90451,10.3838 -7.90451,10.3838 -7.54928,8.0702 -7.54929,8.0702 v 1.2655 1.2656 l 12.45813,4.8012 12.45812,4.8013 12.77757,4.3428 12.77757,4.3429 19.16635,5.6128 19.16635,5.6129 17.24971,3.8562 17.24972,3.8562 16.61083,2.7643 16.61084,2.7643 12.77757,1.6473 12.77756,1.6473 z M 220.82009,999.93786 h -1.41675 L 204.01593,984.92422 188.6285,969.91058 173.97101,953.29974 159.31352,936.6889 146.85191,920.07807 134.3903,903.46723 l -7.64724,-11.49981 -7.64724,-11.49981 -8.51208,-14.38461 -8.51208,-14.38462 -8.875753,-17.71769 -8.875747,-17.7177 -6.374905,-15.17468 -6.374903,-15.17469 -6.494971,-19.07673 -6.494971,-19.07672 -4.386704,-16.70047 -4.386703,-16.70046 -3.183971,-16.61083 -3.18397,-16.61084 -2.003158,-15.33308 -2.003159,-15.33308 -1.498529,-24.61211 -1.498528,-24.61212 1.49009,-25.85927 1.490091,-25.85928 2.011597,-15.33308 2.011596,-15.33308 3.18183,-16.61083 3.181832,-16.61084 4.340412,-16.61084 4.340415,-16.61083 6.5434,-19.16635 6.543401,-19.16635 6.374903,-15.17469 6.374905,-15.17469 8.875747,-17.7177 8.875753,-17.71769 8.51208,-14.38461 8.51208,-14.38462 7.66338,-11.49981 7.66338,-11.49981 10.57262,-14.27576 10.57263,-14.27576 15.26426,-17.66816 15.26427,-17.66815 16.44142,-16.0347 16.44142,-16.03471 14.00726,-11.96849 14.00727,-11.96849 16.65889,-12.4046 16.6589,-12.40461 14.87308,-9.69197 14.87308,-9.69197 15.79308,-9.11731 15.79308,-9.1173 21.72186,-10.59213 21.72186,-10.592137 19.16635,-7.697791 19.16635,-7.697792 13.41645,-4.671407 13.41644,-4.671406 21.72187,-6.17321 21.72186,-6.173209 21.72186,-4.513683 21.72187,-4.513682 17.24971,-2.588278 17.24972,-2.588278 21.08298,-1.945819 21.08299,-1.94582 24.91625,-0.815822 24.91626,-0.815823 23.1547,1.402182 23.1547,1.402183 2.08099,0.798552 2.081,0.798553 v 0.983281 0.983282 l -12.45813,1.539431 -12.45813,1.539431 -16.61084,3.041002 -16.61083,3.041002 -14.6942,3.822358 -14.69421,3.822357 -17.18814,5.892326 -17.18814,5.892327 -12.20026,5.18618 -12.20026,5.186182 -14.86477,7.444582 -14.86477,7.444581 -11.32924,6.654835 -11.32925,6.65483 -16.61083,11.20473 -16.61084,11.20473 -15.17983,12.15335 -15.17982,12.15335 -18.54236,17.00943 -18.54237,17.00942 -19.85507,21.08298 -19.85509,21.08299 -12.53097,15.03288 -12.53097,15.0329 -8.97872,13.38255 -8.97871,13.38255 -9.14015,16.30605 -9.14015,16.30604 -7.26934,15.97195 -7.26934,15.97196 -7.11373,18.52747 -7.11373,18.52748 -5.71002,18.52747 -5.71003,18.52747 -5.23933,20.56662 -5.23932,20.56662 -5.04335,25.43262 -5.04335,25.43262 -3.8505,26.83289 -3.85049,26.83289 -1.96266,19.80523 -1.96266,19.80523 -1.92374,27.47176 -1.92375,27.47177 -1.89168,37.69382 -1.89167,37.69383 -1.32409,83.69306 -1.32409,83.69306 -1.29302,23.6385 -1.29303,23.6385 -2.03133,17.86974 -2.03133,17.86975 -1.10022,2.8938 -1.10022,2.8938 z m -1.07585,-4.08829 1.78569,-0.59523 0.99649,-6.92198 0.99649,-6.92197 1.88167,-18.52748 1.88166,-18.52747 1.25583,-61.9712 1.25582,-61.97119 1.29663,-51.11027 1.29662,-51.11027 1.22942,-20.4441 1.22944,-20.44411 1.40725,-23.6385 1.40727,-23.6385 2.49938,-26.83289 2.4994,-26.83289 3.82564,-26.83289 3.82563,-26.83289 4.42777,-22.99962 4.42777,-22.99962 5.69459,-22.99962 5.69461,-22.99962 4.64576,-15.33308 4.64576,-15.33308 3.78186,-10.86093 3.78184,-10.86093 6.00782,-15.33308 6.00783,-15.33308 10.39688,-21.16644 10.39689,-21.16642 8.0049,-13.33301 8.0049,-13.33299 5.79444,-8.30542 5.79444,-8.30542 15.23595,-18.23006 15.23594,-18.23005 20.00736,-20.62546 20.00736,-20.62545 15.37086,-14.18022 15.37088,-14.18019 15.29528,-12.20172 15.2953,-12.20172 10.86093,-7.7027 10.86093,-7.70269 14.05532,-8.79031 14.05533,-8.790312 21.72186,-10.977925 21.72186,-10.977925 14.05533,-5.499382 14.05532,-5.499385 13.41645,-4.439494 13.41644,-4.439495 16.84376,-4.267839 16.84376,-4.267837 18.29455,-2.882272 18.29455,-2.88227 1.09229,-0.926464 1.0923,-0.926463 -9.8699,-0.924885 -9.86989,-0.924885 -38.4994,0.69756 -38.4994,0.697562 -18.52747,2.040129 -18.52747,2.040129 -19.80523,3.256264 -19.80523,3.256265 -19.16635,4.33858 -19.16635,4.33858 -17.88859,5.086163 -17.88859,5.086162 -14.94671,5.171489 -14.94672,5.17149 -16.10657,6.425793 -16.10657,6.425792 -16.45897,7.717745 -16.45898,7.71775 -14.45894,7.73551 -14.45894,7.73552 -10.86093,6.48252 -10.86093,6.48251 -14.05533,9.20377 -14.05532,9.20377 -15.33308,11.50616 -15.33308,11.50618 -12.30338,10.31856 -12.30339,10.31856 -16.70174,16.09054 -16.70173,16.09052 -12.63653,14.30017 -12.63651,14.30015 -11.15643,14.05532 -11.15642,14.05533 -13.1663,19.80522 -13.1663,19.80523 -7.66693,13.41645 -7.66692,13.41644 -6.531248,13.04053 -6.531248,13.04053 -7.541845,17.63197 -7.541846,17.63198 -6.443566,19.16001 -6.443566,19.16 -3.972143,15.33308 -3.972143,15.33308 -3.108677,15.33308 -3.108677,15.33308 -2.67851,19.80523 -2.678509,19.80523 -0.707971,33.22167 -0.707971,33.22168 1.475351,17.88859 1.475352,17.88859 2.572977,17.8886 2.572979,17.88859 3.82449,17.24971 3.82449,17.24972 5.015525,17.35794 5.015523,17.35793 5.771817,15.69456 5.771816,15.69455 7.692491,17.41891 7.69249,17.41889 9.962509,18.52747 9.9625,18.52747 10.80105,16.9744 10.80104,16.97441 10.86093,14.56302 10.86093,14.56303 11.47419,13.82292 11.4742,13.82294 19.9594,20.29478 19.9594,20.29477 z M 1046.1716,624.2774 h -1.1227 v -20.49447 -20.49447 l -1.3516,-12.40776 -1.3516,-12.40777 -2.5544,-12.77757 -2.5545,-12.77756 -3.876,-13.41645 -3.876,-13.41644 -5.5635,-13.62324 -5.5635,-13.62325 -5.1332,-10.20938 -5.1332,-10.20936 -7.2297,-11.94458 -7.22978,-11.94457 -10.92457,-14.6942 -10.92456,-14.6942 -21.18545,-21.14892 -21.18544,-21.14893 -14.96591,-11.18015 -14.96592,-11.18016 -13.14473,-8.26677 -13.14473,-8.26678 -16.61084,-8.53123 -16.61083,-8.53123 -21.026,-8.52045 -21.026,-8.52044 -0.47016,-1.41049 -0.47016,-1.41049 4.24644,-2.59004 4.24645,-2.59004 13.41644,-5.90993 13.41645,-5.90995 18.52747,-6.12527 18.52747,-6.12526 15.33308,-3.21042 15.33308,-3.21042 13.41645,-1.54481 13.41644,-1.5448 19.80523,0.76159 19.80523,0.76159 15.97196,3.31217 15.97195,3.31217 13.29594,4.43865 13.2959,4.43866 7.2883,3.88459 7.2883,3.88461 2.6004,3.5173 2.6005,3.51729 3.2407,6.30288 3.2407,6.30289 5.7178,12.83755 5.7178,12.83754 3.3192,10.88227 3.3193,10.88226 2.5225,11.55749 2.5225,11.55747 1.9715,13.12619 1.9715,13.12619 1.2143,21.21969 1.2142,21.21968 -1.2984,23.0142 -1.2983,23.01419 -2.5213,19.80523 -2.5213,19.80523 -2.5867,14.05532 -2.5866,14.05532 -2.5674,12.13869 -2.5675,12.13869 -3.1902,12.77757 -3.1902,12.77756 -3.1928,10.86093 -3.1929,10.86094 -1.3721,3.51383 -1.372,3.51383 z m 2.3138,-10.67712 0.4798,-0.47984 3.7972,-13.26843 3.7973,-13.26843 5.0202,-22.36075 5.0203,-22.36074 2.619,-15.97196 2.619,-15.97195 1.8839,-14.69421 1.8839,-14.6942 1.4574,-22.99962 1.4574,-22.99962 -0.8509,-18.52747 -0.8509,-18.52747 -1.8803,-14.6942 -1.8804,-14.6942 -2.5713,-12.77757 -2.5714,-12.77757 -5.5596,-16.61083 -5.5596,-16.61084 -6.3119,-13.41645 -6.3118,-13.41644 -3.5657,-4.22041 -3.5658,-4.22041 -7.1765,-3.59919 -7.1766,-3.5992 -9.5831,-3.26891 -9.5832,-3.26892 -10.57987,-2.68436 -10.57985,-2.68436 -12.41977,-1.87211 -12.41976,-1.8721 -18.56099,-0.008 -18.561,-0.008 -10.8274,1.34335 -10.82742,1.34335 -12.77756,2.62145 -12.77757,2.62143 -14.31315,4.32632 -14.31315,4.3263 -12.89462,5.13721 -12.89463,5.1372 -8.88885,4.47635 -8.88885,4.47635 v 1.07638 1.0764 l 18.41939,7.33345 18.41939,7.33347 17.03835,8.58732 17.03836,8.58731 13.15506,8.21928 13.15504,8.21928 16.23336,12.0959 16.23335,12.09591 17.72659,17.29569 17.72658,17.29568 10.82235,13.41645 10.82234,13.41644 8.93942,13.41645 8.93946,13.41644 9.8703,19.84958 9.8704,19.8496 6.0445,18.16458 6.0445,18.16461 2.5667,11.7604 2.5668,11.76041 1.8427,12.83549 1.8427,12.83549 0.8452,19.49819 0.8453,19.49819 0.4799,-0.47986 z"
         id="path624" />
      <path
         style="fill:#fd5901;stroke-width:1.27776"
         d="m 189.27135,1159.2677 -16.93027,0.7839 v -0.7786 -0.7785 l 10.54149,-7.9902 10.54149,-7.9901 9.6982,-9.7722 9.6982,-9.7722 7.93849,-11.8681 7.93848,-11.8682 6.23635,-12.9123 6.23636,-12.9123 3.85397,-11.1003 3.85398,-11.1003 3.32828,-15.7326 3.32826,-15.7326 1.92407,-13.4165 1.92407,-13.4164 1.83377,-19.80523 1.83378,-19.80523 1.27032,-76.6654 1.27033,-76.6654 1.31563,-36.99214 1.31563,-36.99213 1.913,-33.28449 1.91301,-33.28447 2.60211,-29.38841 2.60213,-29.3884 2.52538,-19.16635 2.5254,-19.16635 3.14881,-18.78858 3.14882,-18.78858 3.29363,-15.71085 3.29362,-15.71085 5.74063,-22.99962 5.74063,-22.99962 5.01719,-16.61084 5.0172,-16.61083 4.36068,-12.13869 4.36067,-12.13869 3.82911,-9.58318 3.8291,-9.58317 7.14992,-15.59733 7.14991,-15.59734 7.15566,-13.15219 7.15567,-13.15219 10.51725,-15.97196 10.51724,-15.97196 10.55498,-12.77756 10.55497,-12.77757 15.28583,-16.77493 15.28583,-16.77494 13.67118,-12.67183 13.67117,-12.67182 12.13869,-10.27918 12.13869,-10.27917 12.77757,-9.59015 12.77756,-9.59015 10.86094,-7.00191 10.86093,-7.00192 10.87719,-6.51415 10.8772,-6.51416 16.59457,-8.26213 16.59457,-8.26212 11.35531,-4.67903 11.35532,-4.67903 16.75533,-5.756099 16.75534,-5.756102 17.24971,-4.343514 17.24972,-4.343514 14.6942,-2.57511 14.6942,-2.575109 10.86093,-1.323278 10.86093,-1.323277 23.67299,-1.290032 23.67298,-1.290032 24.24289,1.313667 24.24289,1.313665 16.61084,1.970196 16.61084,1.970196 14.05532,3.703055 14.05532,3.703055 16.9622,5.816461 16.96219,5.816462 15.6206,6.51819 15.6206,6.51819 22.36075,11.30581 22.36074,11.30582 14.36429,8.68481 14.3642,8.68482 11.8298,8.24747 11.8297,8.24746 19.2171,19.22431 19.217,19.2243 11.2107,14.05532 11.2106,14.05532 8.6822,12.77757 8.6822,12.77757 6.0074,10.63177 6.0074,10.6318 -0.406,1.21804 -0.406,1.21806 -10.8251,-7.94557 -10.8251,-7.94558 -13.4421,-8.17833 -13.4421,-8.17833 -9.7057,-4.90492 -9.7056,-4.90492 -12.3124,-5.12425 -12.3123,-5.12424 -13.7592,-4.42748 -13.7591,-4.42748 -14.6942,-3.26311 -14.69423,-3.26309 -15.07909,-1.96413 -15.07907,-1.96412 h -23.50762 -23.50762 l -14.4402,1.89819 -14.44021,1.89818 -12.13868,2.64902 -12.13869,2.64901 -11.20662,3.21818 -11.20663,3.21817 -9.87635,3.60508 -9.87637,3.60506 -13.77704,6.03427 -13.77703,6.03425 -15.61138,8.93111 -15.61136,8.9311 -12.08105,8.4086 -12.08106,8.4086 -12.6221,10.15285 -12.62212,10.15285 -14.47859,13.91889 -14.47858,13.91889 -11.18017,12.7417 -11.18015,12.74169 -10.72858,13.73242 -10.72858,13.73241 -14.48306,21.72186 -14.48305,21.72186 -11.22955,19.80523 -11.22954,19.80523 -12.42409,25.55513 -12.42408,25.55514 -7.24688,17.24971 -7.24686,17.24972 -6.45627,16.61083 -6.45626,16.61084 -9.33726,28.11065 -9.33726,28.11064 -7.03529,24.91626 -7.03528,24.91625 -7.05227,28.20639 -7.05228,28.20639 -7.68522,38.23696 -7.68522,38.23696 -6.46949,38.97157 -6.46949,38.97158 -3.24049,14.6942 -3.24048,14.69421 -4.28942,15.33308 -4.2894,15.33308 -4.05563,11.49981 -4.05561,11.49981 -5.03755,12.13868 -5.03755,12.13866 -7.491,14.2724 -7.49099,14.2723 -7.94196,11.9217 -7.94195,11.9217 -6.10624,7.7013 -6.10625,7.7014 -14.52824,14.0205 -14.52826,14.0205 -11.46277,8.1167 -11.46277,8.1168 -17.88859,8.7987 -17.8886,8.7988 -13.41644,4.3546 -13.41645,4.3546 -14.6942,3.2792 -14.6942,3.2792 -15.33308,2.0163 -15.33308,2.0162 z m 435.68376,-133.0087 -5.31964,10.0949 -0.023,-5.7499 -0.023,-5.7499 2.4341,-11.7953 2.4341,-11.7953 3.37052,-7.37105 3.37051,-7.37104 5.59009,-8.97639 5.59008,-8.97638 8.07431,-7.7082 8.0743,-7.70819 7.02766,-5.23268 7.02766,-5.23269 12.77757,-7.12369 12.77756,-7.1237 18.52748,-6.84753 18.52747,-6.84752 17.24971,-5.45677 17.24972,-5.45677 19.80523,-7.33271 19.80522,-7.3327 23.10063,-9.80117 23.10064,-9.80118 19.06533,-10.60302 19.06534,-10.60302 19.80523,-13.22918 19.80523,-13.22918 12.49003,-9.43855 12.49002,-9.43856 9.23185,-7.67178 9.23183,-7.67177 15.7848,-15.57644 15.78481,-15.57643 12.8221,-15.97196 12.8221,-15.97195 14.4006,-21.72187 14.4005,-21.72186 7.1762,-13.58667 7.1761,-13.58667 6.9798,-21.14215 6.9797,-21.14215 5.0848,-19.75718 5.0848,-19.75718 3.9182,-20.90164 3.9182,-20.90165 2.4444,-19.16635 2.4443,-19.16635 1.521,-24.27737 1.5209,-24.27738 -0.8172,-24.95719 -0.8173,-24.95719 -1.917,-16.56991 -1.917,-16.56989 -1.9771,-10.86094 -1.977,-10.86093 -3.7081,-14.6942 -3.7081,-14.6942 -2.616,-7.54713 -2.616,-7.54714 v -0.5953 -0.5953 l 1.9423,1.61199 1.9423,1.61198 11.9312,16.7525 11.9311,16.75251 10.8648,17.24971 10.8648,17.24972 8.7085,15.33308 8.7086,15.33308 13.709,28.11064 13.709,28.11065 7.669,19.16635 7.669,19.16635 6.6035,19.80523 6.6035,19.80523 5.5302,21.72186 5.5302,21.72186 3.3198,18.52747 3.3199,18.52748 1.8449,17.24971 1.8448,17.24972 0.8405,20.4441 0.8404,20.44411 -1.4713,13.41644 -1.4714,13.41645 -2.5614,15.33308 -2.5615,15.33308 -3.8213,15.33308 -3.8213,15.33308 -4.4696,13.41644 -4.4696,13.41645 -8.7646,17.88859 -8.7646,17.8886 -7.2931,10.86093 -7.2931,10.86093 -7.0826,8.68498 -7.0826,8.68498 -9.0696,8.40446 -9.0695,8.40446 -11.3786,8.14586 -11.3786,8.14588 -14.8154,7.52213 -14.8155,7.52213 -12.3038,4.58005 -12.3039,4.58007 -13.2513,3.8265 -13.2512,3.82648 -22.9996,5.24951 -22.9997,5.2495 -16.6108,2.44273 -16.61084,2.44272 -19.16635,2.60924 -19.16635,2.60926 -24.27738,2.02568 -24.27737,2.02569 -70.9155,0.94323 -70.91549,0.94324 -15.33308,2.1645 -15.33308,2.16451 -10.34578,2.42691 -10.34577,2.42691 -7.42116,3.28198 -7.42114,3.28199 -11.22726,6.42486 -11.22725,6.42486 -10.68732,10.61541 -10.68732,10.6154 z"
         id="path622" />
      <path
         style="fill:#264fa3;stroke-width:1.27776"
         d="m 677.46784,1160.5398 -28.33664,0.7744 -1.00545,-4.9811 -1.00546,-4.9811 0.048,-24.9162 0.048,-24.9163 2.17134,-15.9719 2.17135,-15.972 2.6047,-7.9099 2.60472,-7.9099 4.81286,-7.4232 4.81287,-7.4232 7.92535,-7.3162 7.92536,-7.3163 13.0575,-6.4483 13.05751,-6.4483 12.13869,-3.0397 12.13868,-3.0396 15.97196,-2.2558 15.97196,-2.2558 69.63774,-0.91724 69.63774,-0.91727 19.16635,-1.43229 19.16635,-1.43227 19.55218,-2.61045 19.55218,-2.61044 20.69712,-3.06388 20.6972,-3.06388 29.3884,-6.98871 29.3884,-6.9887 15.9719,-5.70631 15.972,-5.70631 8.744,-3.98427 8.7439,-3.98428 h 0.5198 0.5198 v 2.1337 2.13372 l -17.5692,17.83284 -17.5691,17.83285 -15.972,14.06119 -15.972,14.0612 -17.3276,13.0434 -17.3276,13.0434 -14.6163,9.6203 -14.6163,9.6203 -17.21219,9.9761 -17.21221,9.9762 -23.03712,11.1325 -23.03713,11.1324 -15.97195,6.4207 -15.97196,6.4207 -19.80523,6.4497 -19.80523,6.4498 -15.97196,4.4142 -15.97196,4.4142 -17.24971,3.8651 -17.24972,3.865 -19.80522,3.253 -19.80523,3.2531 -18.52747,1.9883 -18.52748,1.9884 -28.33664,0.7744 z m -10.77639,-0.8855 h 16.11342 l 17.24971,-1.2747 17.24972,-1.2747 16.61083,-1.9648 16.61084,-1.9647 15.33308,-2.5623 15.33308,-2.5624 20.28492,-4.4997 20.28494,-4.4998 23.31533,-6.8786 23.31533,-6.8786 15.88778,-5.7591 15.88778,-5.7591 14.62185,-6.2905 14.62184,-6.2906 13.41645,-6.3276 13.41644,-6.3277 17.70432,-9.9191 17.70431,-9.9191 14.23958,-8.9704 14.2396,-8.9703 13.4165,-9.6784 13.4164,-9.6784 12.7776,-10.2122 12.7776,-10.2122 16.3406,-14.63515 16.3406,-14.63511 12.0911,-12.81724 12.0911,-12.81724 -0.575,-0.57501 -0.575,-0.57502 -13.8014,5.75374 -13.8014,5.75372 -10.2221,3.32262 -10.222,3.3226 -29.6672,7.01368 -29.6672,7.01369 -31.02624,4.42784 -31.02625,4.42785 -12.77757,1.3169 -12.77757,1.3169 -18.52747,1.47933 -18.52747,1.4794 -70.27662,0.9551 -70.27661,0.9551 -12.77757,2.0961 -12.77757,2.0962 -10.22205,2.5875 -10.22205,2.5875 -13.22381,6.4175 -13.22381,6.4175 -9.91018,9.818 -9.91018,9.818 -3.95036,8.3456 -3.95035,8.3457 -1.30228,5.811 -1.30229,5.8111 -1.96009,15.8324 -1.96009,15.8324 0.0115,20.4823 0.0115,20.4822 0.80575,6.7083 0.80575,6.7082 h 16.11342 z m -80.75206,-1.4183 -1.52179,-0.1437 -12.77756,-1.6473 -12.77757,-1.6473 -16.61084,-2.7643 -16.61083,-2.7643 -17.24972,-3.8562 -17.24971,-3.8562 -19.16635,-5.6129 -19.16635,-5.6128 -12.77757,-4.3429 -12.77757,-4.3428 -12.45812,-4.8013 -12.45813,-4.8012 v -1.2656 -1.2655 l 7.54929,-8.0702 7.54928,-8.0702 7.90451,-10.3838 7.90451,-10.3838 8.30768,-13.6527 8.30767,-13.6528 6.76429,-14.0553 6.76429,-14.0553 6.43262,-17.24974 6.43263,-17.24972 4.43739,-15.33308 4.43739,-15.33308 3.2298,-14.6942 3.22979,-14.6942 1.46425,-7.3471 1.46427,-7.3471 h 1.1 1.1 l 10.35983,3.81979 10.35983,3.81979 18.7963,5.16524 18.7963,5.16524 16.61084,3.04101 16.61083,3.04101 12.13869,1.43851 12.13869,1.43853 2.95375,0.63487 2.95374,0.6349 -8.33505,9.00262 -8.33506,9.00263 -7.05512,14.27231 -7.05511,14.27231 -3.7198,14.6942 -3.7198,14.69416 -1.58072,13.5831 -1.58073,13.583 0.70375,28.583 0.70375,28.5829 2.5961,17.2497 2.59609,17.2497 2.56938,12.6586 2.56938,12.6586 -0.66582,1.0773 -0.6658,1.0773 z m -0.56347,-1.2918 0.95832,0.1577 -0.006,-1.5972 -0.006,-1.5972 -3.07501,-15.9719 -3.07501,-15.972 -2.28034,-17.8886 -2.28034,-17.8886 -0.0652,-26.8329 -0.0652,-26.8328 1.6485,-11.2304 1.64849,-11.2303 3.0094,-11.86341 3.00939,-11.86337 3.50108,-8.8502 3.50108,-8.8502 4.92464,-8.51044 4.92463,-8.51044 6.39925,-7.00179 6.39925,-7.0018 v -0.61406 -0.61407 l -9.26374,-0.89671 -9.26374,-0.89672 -14.66416,-2.49054 -14.66416,-2.49054 -14.72424,-3.30046 -14.72548,-3.30044 -19.32464,-6.25497 -19.32464,-6.25495 h -1.26405 -1.26406 l -2.18835,11.18037 -2.18835,11.18037 -4.31323,17.24972 -4.31322,17.24971 -5.27864,15.97196 -5.27863,15.97196 -5.72885,14.05532 -5.72883,14.0553 -7.688,14.6822 -7.68798,14.6822 -7.98088,12.1507 -7.98088,12.1507 -7.7684,9.5832 -7.76841,9.5832 -4.58888,4.4033 -4.5889,4.4034 v 1.0725 1.0725 l 5.94658,2.549 5.94656,2.549 16.09474,5.6035 16.09473,5.6035 18.66508,5.77 18.6651,5.77 20.30648,4.4963 20.30649,4.4963 20.44411,3.2619 20.44411,3.2618 8.30542,1.1158 8.30541,1.1159 z m -365.63168,-161.09463 -1.78569,0.59523 -19.9594,-20.29477 -19.9594,-20.29478 -11.4742,-13.82294 -11.47419,-13.82292 -10.86093,-14.56303 -10.86093,-14.56302 -10.80104,-16.97441 -10.80105,-16.9744 -9.9625,-18.52747 -9.962509,-18.52747 -7.69249,-17.41889 -7.692491,-17.41891 -5.771816,-15.69455 -5.771817,-15.69456 -5.015523,-17.35793 -5.015525,-17.35794 -3.82449,-17.24972 -3.82449,-17.24971 -2.572979,-17.88859 -2.572977,-17.8886 -1.475352,-17.88859 -1.475351,-17.88859 0.707971,-33.22168 0.707971,-33.22167 2.678509,-19.80523 2.67851,-19.80523 3.108677,-15.33308 3.108677,-15.33308 3.972143,-15.33308 3.972143,-15.33308 6.443566,-19.16 6.443566,-19.16001 7.541846,-17.63198 7.541845,-17.63197 6.531248,-13.04053 6.531248,-13.04053 7.66692,-13.41644 7.66693,-13.41645 13.1663,-19.80523 13.1663,-19.80522 11.15642,-14.05533 11.15643,-14.05532 12.63651,-14.30015 12.63653,-14.30017 16.70173,-16.09052 16.70174,-16.09054 12.30339,-10.31856 12.30338,-10.31856 15.33308,-11.50618 15.33308,-11.50616 14.05532,-9.20377 14.05533,-9.20377 10.86093,-6.48251 10.86093,-6.48252 14.45894,-7.73552 14.45894,-7.73551 16.45898,-7.71775 16.45897,-7.717745 16.10657,-6.425792 16.10657,-6.425793 14.94672,-5.17149 14.94671,-5.171489 17.88859,-5.086162 17.88859,-5.086163 19.16635,-4.33858 19.16635,-4.33858 19.80523,-3.256265 19.80523,-3.256264 18.52747,-2.040129 18.52747,-2.040129 38.4994,-0.697562 38.4994,-0.69756 9.86989,0.924885 9.8699,0.924885 -1.0923,0.926463 -1.09229,0.926464 -18.29455,2.88227 -18.29455,2.882272 -16.84376,4.267837 -16.84376,4.267839 -13.41644,4.439495 -13.41645,4.439494 -14.05532,5.499385 -14.05533,5.499382 -21.72186,10.977925 -21.72186,10.977925 -14.05533,8.790312 -14.05532,8.79031 -10.86093,7.70269 -10.86093,7.7027 -15.2953,12.20172 -15.29528,12.20172 -15.37088,14.18019 -15.37086,14.18022 -20.00736,20.62545 -20.00736,20.62546 -15.23594,18.23005 -15.23595,18.23006 -5.79444,8.30542 -5.79444,8.30542 -8.0049,13.33299 -8.0049,13.33301 -10.39689,21.16642 -10.39688,21.16644 -6.00783,15.33308 -6.00782,15.33308 -3.78184,10.86093 -3.78186,10.86093 -4.64576,15.33308 -4.64576,15.33308 -5.69461,22.99962 -5.69459,22.99962 -4.42777,22.99962 -4.42777,22.99962 -3.82563,26.83289 -3.82564,26.83289 -2.4994,26.83289 -2.49938,26.83289 -1.40727,23.6385 -1.40725,23.6385 -1.22944,20.44411 -1.22942,20.4441 -1.29662,51.11027 -1.29663,51.11027 -1.25582,61.97119 -1.25583,61.9712 -1.88166,18.52747 -1.88167,18.52748 -0.99649,6.92197 -0.99649,6.92198 z m -1.31657,-2.3005 h 0.98736 l 0.74596,-3.51383 0.74598,-3.51383 1.94599,-18.52747 1.94598,-18.52747 1.16916,-30.02728 1.16915,-30.02728 0.7965,-60.05457 0.79649,-60.05456 1.15885,-30.02728 1.15884,-30.02728 1.97201,-34.49943 1.97201,-34.49943 2.57056,-29.38841 2.57055,-29.3884 4.50091,-31.30504 4.50092,-31.30504 4.42641,-22.53021 4.42639,-22.5302 5.01535,-20.27465 5.01535,-20.27463 5.83184,-19.48547 5.83185,-19.48547 6.5206,-17.56948 6.52058,-17.56947 8.0952,-17.88859 8.09519,-17.8886 7.90459,-14.6942 7.90457,-14.6942 6.48463,-10.22205 6.48464,-10.22206 6.97862,-9.58317 6.97862,-9.58318 13.46582,-15.97196 13.46581,-15.97195 28.16956,-28.21741 28.16956,-28.21739 13.48168,-11.47329 13.48167,-11.47329 12.71234,-9.60235 12.71234,-9.60235 13.41644,-8.97594 13.41645,-8.97594 12.64955,-7.300457 12.64953,-7.30046 12.36314,-6.204113 12.36314,-6.204112 13.9589,-5.9763 13.95889,-5.976301 20.44411,-6.766746 20.44411,-6.766746 19.80523,-4.553061 19.80522,-4.553061 6.70823,-0.857364 6.70822,-0.857363 v -1.285051 -1.28505 l -39.9299,0.736781 -39.92989,0.73678 -14.05533,1.410631 -14.05532,1.410629 -17.88859,2.540914 -17.8886,2.540913 -21.72186,4.398158 -21.72186,4.398158 -18.83931,5.166022 -18.83932,5.166022 -17.57675,5.850798 -17.57675,5.850799 -19.16635,7.725157 -19.16635,7.725158 -16.94113,8.036855 -16.94111,8.03685 -15.64168,8.57831 -15.64167,8.57832 -15.33308,9.64973 -15.33308,9.64972 -17.01671,12.12179 -17.01669,12.12178 -16.20498,13.39642 -16.20497,13.39643 -20.87431,20.5448 -20.87433,20.54481 -12.34735,14.45472 -12.34736,14.45473 -12.84172,17.18827 -12.84173,17.18826 -11.38462,18.18952 -11.38462,18.18952 -11.147678,21.72186 -11.147673,21.72187 -6.585512,15.33308 -6.585512,15.33308 -7.461768,22.36074 -7.461769,22.36074 -4.558691,18.58851 -4.558691,18.58852 -3.124692,18.46642 -3.124691,18.46644 -2.136692,22.36074 -2.136693,22.36074 0.704303,32.58279 0.704304,32.5828 1.446454,12.13869 1.446453,12.13869 3.110627,18.46643 3.110627,18.46642 4.571025,18.58852 4.571025,18.58851 6.752627,20.49094 6.752628,20.49095 6.691238,15.92511 6.691239,15.92513 10.653034,21.08299 10.653038,21.08298 10.90141,17.6876 10.90141,17.68761 9.26258,12.97855 9.26259,12.97856 12.80033,15.97196 12.80032,15.97196 21.60559,22.0413 21.60559,22.0413 z m 830.05773,-379.94879 -0.4799,0.47987 -0.8453,-19.49819 -0.8452,-19.49819 -1.8427,-12.83549 -1.8427,-12.83549 -2.5668,-11.76041 -2.5667,-11.76041 -6.0445,-18.1646 -6.0445,-18.16459 -9.8704,-19.84959 -9.8703,-19.84958 -8.93946,-13.41644 -8.93942,-13.41645 -10.82234,-13.41644 -10.82235,-13.41645 -17.72658,-17.29569 -17.72659,-17.29568 -16.23335,-12.09591 -16.23336,-12.0959 -13.15504,-8.21928 -13.15506,-8.21928 -17.03836,-8.58731 -17.03835,-8.58732 -18.41939,-7.33347 -18.41939,-7.33345 v -1.0764 -1.07638 l 8.88885,-4.47635 8.88885,-4.47635 12.89463,-5.1372 12.89462,-5.13721 14.31315,-4.3263 14.31315,-4.32632 12.77757,-2.62143 12.77756,-2.62145 10.82742,-1.34336 10.8274,-1.34334 18.561,0.008 18.56099,0.008 12.41976,1.87211 12.41977,1.8721 10.57985,2.68437 10.57987,2.68436 9.5832,3.26892 9.5831,3.26891 7.1766,3.5992 7.1765,3.59919 3.5658,4.22041 3.5657,4.22041 6.3118,13.41644 6.3119,13.41645 5.5596,16.61083 5.5596,16.61084 2.5714,12.77757 2.5713,12.77756 1.8804,14.69421 1.8803,14.6942 0.8509,18.52747 0.8509,18.52747 -1.4574,22.99962 -1.4574,22.99962 -1.8839,14.6942 -1.8839,14.6942 -2.619,15.97196 -2.619,15.97196 -5.0203,22.36074 -5.0202,22.36074 -3.7973,13.26843 -3.7972,13.26843 -0.4798,0.47985 z m 1.085,-8.78856 0.3025,-0.33955 5.1626,-20.44411 5.1627,-20.4441 2.5744,-12.77757 2.5745,-12.77757 1.9601,-11.49981 1.9601,-11.49981 1.8623,-13.41644 1.8624,-13.41645 1.5207,-18.93782 1.5207,-18.93782 -0.639,-29.61693 -0.6391,-29.61693 -2.2172,-14.69421 -2.2172,-14.6942 -4.1944,-16.61083 -4.1943,-16.61084 -3.9842,-10.86093 -3.9843,-10.86093 -7.3324,-14.69421 -7.3323,-14.6942 -6.3888,-3.4791 -6.3888,-3.47909 -10.8609,-3.99199 -10.861,-3.99199 -11.74643,-3.01039 -11.74648,-3.01038 -14.17203,-1.97666 -14.17202,-1.97665 h -14.58483 -14.58483 l -14.99092,1.96514 -14.99093,1.96513 -11.58796,2.54491 -11.58797,2.54492 -12.73516,3.91863 -12.73516,3.91862 -9.62558,3.81786 -9.62559,3.81786 -11.18037,5.1885 -11.18037,5.1885 v 0.79253 0.79251 l 6.70822,2.35123 6.70823,2.35122 13.41644,5.6904 13.41645,5.6904 17.11513,8.87922 17.11513,8.87924 18.02317,12.04578 18.02318,12.04578 10.86094,8.64685 10.86093,8.64686 18.55067,18.58828 18.55067,18.58828 11.06951,14.6942 11.06951,14.6942 7.23685,11.49981 7.2369,11.49981 8.0726,16.61084 8.0726,16.61084 4.6554,12.59447 4.6554,12.59447 4.3076,16.80706 4.3075,16.80707 1.9569,14.04219 1.9569,14.04219 0.8841,15.67263 0.8841,15.67262 z"
         id="path620" />
      <path
         style="fill:#003197;stroke-width:1.27776"
         d="m 666.69145,1159.6543 h -16.11342 l -0.80575,-6.7082 -0.80576,-6.7083 -0.0115,-20.4822 -0.0115,-20.4823 1.96009,-15.8324 1.9601,-15.8324 1.30229,-5.8111 1.30227,-5.811 3.95035,-8.3457 3.95037,-8.3456 9.91018,-9.818 9.91017,-9.818 13.22381,-6.4175 13.22382,-6.4175 10.22205,-2.5875 10.22205,-2.5875 12.77757,-2.0962 12.77757,-2.0961 70.27661,-0.9551 70.27662,-0.9551 18.52747,-1.4794 18.52747,-1.47932 12.77757,-1.31691 12.77757,-1.3169 31.02625,-4.42784 31.02623,-4.42785 29.6672,-7.01369 29.6672,-7.01368 10.2221,-3.3226 10.222,-3.32261 13.8014,-5.75373 13.8014,-5.75374 0.575,0.57502 0.575,0.57501 -12.0911,12.81724 -12.0911,12.81725 -16.3406,14.6351 -16.3406,14.63515 -12.7776,10.2122 -12.7776,10.2122 -13.4164,9.6784 -13.4165,9.6784 -14.2396,8.9703 -14.23957,8.9704 -17.70431,9.9191 -17.70432,9.9191 -13.41644,6.3277 -13.41645,6.3276 -14.62184,6.2906 -14.62186,6.2905 -15.88778,5.7591 -15.88778,5.7591 -23.31532,6.8786 -23.31533,6.8786 -20.28494,4.4998 -20.28492,4.4997 -15.33308,2.5624 -15.33308,2.5623 -16.61084,1.9647 -16.61083,1.9648 -17.24972,1.2747 -17.24971,1.2747 h -16.11342 z m -81.31553,-2.7101 -0.95832,-0.1577 -8.30541,-1.1159 -8.30542,-1.1158 -20.44411,-3.2618 -20.44411,-3.2619 -20.30649,-4.4963 -20.30648,-4.4963 -18.6651,-5.77 -18.66508,-5.77 -16.09473,-5.6035 -16.09474,-5.6035 -5.94656,-2.549 -5.94658,-2.549 v -1.0725 -1.0725 l 4.5889,-4.4034 4.58888,-4.4033 7.76841,-9.5832 7.7684,-9.5832 7.98088,-12.1507 7.98088,-12.1507 7.68798,-14.6822 7.688,-14.6822 5.72883,-14.0553 5.72885,-14.05532 5.27863,-15.97196 5.27864,-15.97196 4.31322,-17.24971 4.31323,-17.24972 2.18835,-11.18037 2.18835,-11.18037 h 1.26406 1.26405 l 19.32464,6.25495 19.32464,6.25497 14.72424,3.30044 14.72424,3.30046 14.66416,2.49054 14.66416,2.49054 9.26374,0.89672 9.26374,0.89671 v 0.61407 0.61406 l -6.39925,7.0018 -6.39925,7.00179 -4.92463,8.51044 -4.92464,8.51044 -3.50108,8.8502 -3.50108,8.8502 -3.00939,11.86337 -3.0094,11.86341 -1.64849,11.2303 -1.64849,11.2304 0.0652,26.8328 0.0652,26.8329 2.28034,17.8886 2.28034,17.8886 3.07501,15.972 3.07501,15.9719 0.006,1.5972 0.006,1.5972 -0.95832,-0.1577 z M 218.42767,993.54907 h -0.98735 l -21.60559,-22.0413 -21.60559,-22.0413 -12.80032,-15.97196 -12.80033,-15.97196 -9.26259,-12.97856 -9.26258,-12.97855 -10.90141,-17.68761 -10.90141,-17.6876 -10.653038,-21.08298 -10.653034,-21.08299 -6.691239,-15.92513 -6.691238,-15.92511 -6.752628,-20.49095 -6.752627,-20.49094 -4.571025,-18.58851 -4.571025,-18.58852 -3.110627,-18.46642 -3.110627,-18.46643 -1.446453,-12.13869 -1.446454,-12.13869 -0.704304,-32.5828 -0.704303,-32.58279 2.136693,-22.36074 2.136692,-22.36074 3.124691,-18.46644 3.124692,-18.46642 4.558691,-18.58852 4.558691,-18.58851 7.461769,-22.36074 7.461768,-22.36074 6.585512,-15.33308 6.585512,-15.33308 11.147673,-21.72187 11.147678,-21.72186 11.38462,-18.18952 11.38462,-18.18952 12.84173,-17.18826 12.84172,-17.18827 12.34736,-14.45473 12.34735,-14.45472 20.87433,-20.54481 20.87431,-20.5448 16.20497,-13.39643 16.20498,-13.39642 17.01669,-12.12178 17.01671,-12.12179 15.33308,-9.64972 15.33308,-9.64973 15.64167,-8.57832 15.64168,-8.57831 16.94111,-8.03685 16.94113,-8.036855 19.16635,-7.725158 19.16635,-7.725157 17.57675,-5.850799 17.57675,-5.850798 18.83932,-5.166022 18.83931,-5.166022 21.72186,-4.398158 21.72186,-4.398158 17.8886,-2.540913 17.88859,-2.540914 14.05532,-1.410629 14.05533,-1.410631 39.92989,-0.73678 39.9299,-0.736781 v 1.28505 1.285051 l -6.70822,0.857363 -6.70823,0.857364 -19.80522,4.553061 -19.80523,4.553061 -20.44411,6.766746 -20.44411,6.766746 -13.95889,5.976301 -13.9589,5.9763 -12.36314,6.204112 -12.36314,6.204113 -12.64953,7.30046 -12.64955,7.300457 -13.41645,8.97594 -13.41644,8.97594 -12.71234,9.60235 -12.71234,9.60235 -13.48167,11.47329 -13.48168,11.47329 -28.16956,28.21739 -28.16956,28.21741 -13.46581,15.97195 -13.46582,15.97196 -6.97862,9.58318 -6.97862,9.58317 -6.48464,10.22206 -6.48463,10.22205 -7.90457,14.6942 -7.90459,14.6942 -8.09519,17.8886 -8.0952,17.88859 -6.52058,17.56947 -6.5206,17.56948 -5.83185,19.48547 -5.83184,19.48547 -5.01535,20.27463 -5.01535,20.27465 -4.42639,22.5302 -4.42641,22.53021 -4.50092,31.30504 -4.50091,31.30504 -2.57055,29.3884 -2.57056,29.38841 -1.97201,34.49943 -1.97201,34.49943 -1.15884,30.02728 -1.15885,30.02728 -0.79649,60.05456 -0.7965,60.05457 -1.16915,30.02728 -1.16916,30.02728 -1.94598,18.52747 -1.94599,18.52747 -0.74598,3.51383 -0.74596,3.51383 z m 831.14273,-388.73735 -0.3025,0.33954 -0.8841,-15.67262 -0.8841,-15.67263 -1.9569,-14.04219 -1.9569,-14.04219 -4.3075,-16.80707 -4.3076,-16.80706 -4.6554,-12.59447 -4.6554,-12.59447 -8.0726,-16.61084 -8.0726,-16.61084 -7.2369,-11.49981 -7.23685,-11.49981 -11.06951,-14.6942 -11.06951,-14.6942 -18.55067,-18.58828 -18.55067,-18.58828 -10.86093,-8.64686 -10.86094,-8.64685 -18.02318,-12.04578 -18.02317,-12.04578 -17.11513,-8.87924 -17.11513,-8.87922 -13.41645,-5.6904 -13.41644,-5.6904 -6.70823,-2.35122 -6.70822,-2.35123 v -0.79251 -0.79253 l 11.18037,-5.1885 11.18037,-5.1885 9.62559,-3.81786 9.62558,-3.81786 12.73516,-3.91862 12.73516,-3.91863 11.58797,-2.54492 11.58796,-2.54491 14.99093,-1.96513 14.99092,-1.96514 h 14.58483 14.58483 l 14.17202,1.97665 14.17203,1.97666 11.74648,3.01038 11.74643,3.01039 10.861,3.99199 10.8609,3.99199 6.3888,3.47909 6.3888,3.4791 7.3323,14.6942 7.3324,14.69421 3.9843,10.86093 3.9842,10.86093 4.1943,16.61084 4.1944,16.61083 2.2172,14.6942 2.2172,14.69421 0.6391,29.61693 0.639,29.61693 -1.5207,18.93782 -1.5207,18.93782 -1.8624,13.41645 -1.8623,13.41644 -1.9601,11.49981 -1.9601,11.49981 -2.5745,12.77757 -2.5744,12.77757 -5.1627,20.4441 -5.1626,20.44411 z"
         id="path618" />
    </g>
  </g>
</svg>
